# xmcd
#
# Track frame offsets:
#	150
#	31079
#	65509
#	90387
#	113447
#	128801
#	151763
#	168879
#	198405
#	228064
#
# Disc length: 3372 seconds
#
# Revision: 0
# Processed by: cddbd v1.4PL0 Copyright (c) Steve Scherf et al.
# Submitted via: dBpowerAMP V4.0
#
DISCID=670d2a0a
DTITLE=Various Artist - Nhung tinh khuc vuot thoi gian 1
DYEAR=1900
DGENRE=
TTITLE0=Thu Ha - Biet ly
TTITLE1=Hong Hanh - Con thuyen khong ben
TTITLE2=Thanh Long -  Du am
TTITLE3=Thuy Duong - Ta ao tim
TTITLE4=Cao Minh - Mo hoa
TTITLE5=Anh Tuyet - Mua thu khong tro lai
TTITLE6=Tinh Quyen - Mot  thuo yeu dan
TTITLE7=Canh Han - Ai ve song Tuong
TTITLE8=Hong Nhung - Dem dong
TTITLE9=Tram Tu - Son nu ca
EXTD=
EXTT0=
EXTT1=
EXTT2=
EXTT3=
EXTT4=
EXTT5=
EXTT6=
EXTT7=
EXTT8=
EXTT9=
PLAYORDER=
